<mxfile host="app.diagrams.net" agent="Mozilla/5.0 (Windows NT 10.0; Win64; x64) AppleWebKit/537.36 (KHTML, like Gecko) Chrome/134.0.0.0 Safari/537.36" version="26.1.3">
  <diagram name="VM Location Region" id="DYNFZNy9s7Flz7Rx167I">
    <mxGraphModel dx="3590" dy="1630" grid="1" gridSize="10" guides="1" tooltips="1" connect="1" arrows="1" fold="1" page="0" pageScale="1" pageWidth="850" pageHeight="1100" math="0" shadow="0">
      <root>
        <mxCell id="0" />
        <mxCell id="1" parent="0" />
        <mxCell id="4VQiV0ycE3jQWibe9DLj-18" value="" style="rounded=1;whiteSpace=wrap;html=1;" vertex="1" parent="1">
          <mxGeometry x="-910" y="80" width="390" height="320" as="geometry" />
        </mxCell>
        <mxCell id="4VQiV0ycE3jQWibe9DLj-17" value="" style="rounded=1;whiteSpace=wrap;html=1;" vertex="1" parent="1">
          <mxGeometry x="-410" y="-270" width="410" height="340" as="geometry" />
        </mxCell>
        <mxCell id="4VQiV0ycE3jQWibe9DLj-16" value="" style="rounded=1;whiteSpace=wrap;html=1;" vertex="1" parent="1">
          <mxGeometry x="640" y="290" width="390" height="320" as="geometry" />
        </mxCell>
        <mxCell id="4VQiV0ycE3jQWibe9DLj-15" value="" style="rounded=1;whiteSpace=wrap;html=1;" vertex="1" parent="1">
          <mxGeometry x="-60" y="380" width="390" height="320" as="geometry" />
        </mxCell>
        <mxCell id="4VQiV0ycE3jQWibe9DLj-3" value="" style="image;html=1;points=[];align=center;fontSize=12;image=img/lib/azure2/compute/Virtual_Machine.svg;aspect=fixed;" vertex="1" parent="1">
          <mxGeometry x="20" y="484" width="69" height="64" as="geometry" />
        </mxCell>
        <mxCell id="4VQiV0ycE3jQWibe9DLj-4" value="" style="image;html=1;points=[];align=center;fontSize=12;image=img/lib/azure2/compute/Virtual_Machine.svg;aspect=fixed;" vertex="1" parent="1">
          <mxGeometry x="79" y="620" width="69" height="64" as="geometry" />
        </mxCell>
        <mxCell id="4VQiV0ycE3jQWibe9DLj-5" value="" style="image;html=1;points=[];align=center;fontSize=12;image=img/lib/azure2/compute/Virtual_Machine.svg;aspect=fixed;" vertex="1" parent="1">
          <mxGeometry x="129" y="420" width="69" height="64" as="geometry" />
        </mxCell>
        <mxCell id="4VQiV0ycE3jQWibe9DLj-6" value="" style="image;html=1;points=[];align=center;fontSize=12;image=img/lib/azure2/compute/Virtual_Machine.svg;aspect=fixed;" vertex="1" parent="1">
          <mxGeometry x="780.5" y="310" width="69" height="64" as="geometry" />
        </mxCell>
        <mxCell id="4VQiV0ycE3jQWibe9DLj-9" value="" style="image;html=1;points=[];align=center;fontSize=12;image=img/lib/azure2/compute/Virtual_Machine.svg;aspect=fixed;" vertex="1" parent="1">
          <mxGeometry x="-839" y="300" width="69" height="64" as="geometry" />
        </mxCell>
        <mxCell id="4VQiV0ycE3jQWibe9DLj-10" value="" style="image;html=1;points=[];align=center;fontSize=12;image=img/lib/azure2/compute/Virtual_Machine.svg;aspect=fixed;" vertex="1" parent="1">
          <mxGeometry x="-770" y="150" width="69" height="64" as="geometry" />
        </mxCell>
        <mxCell id="4VQiV0ycE3jQWibe9DLj-11" value="" style="image;html=1;points=[];align=center;fontSize=12;image=img/lib/azure2/compute/Virtual_Machine.svg;aspect=fixed;" vertex="1" parent="1">
          <mxGeometry x="189" y="548" width="69" height="64" as="geometry" />
        </mxCell>
        <mxCell id="4VQiV0ycE3jQWibe9DLj-12" value="" style="image;html=1;points=[];align=center;fontSize=12;image=img/lib/azure2/compute/Virtual_Machine.svg;aspect=fixed;imageBorder=none;" vertex="1" parent="1">
          <mxGeometry x="890.5" y="410" width="69" height="64" as="geometry" />
        </mxCell>
        <mxCell id="4VQiV0ycE3jQWibe9DLj-21" value="" style="rounded=1;whiteSpace=wrap;html=1;shadow=1;" vertex="1" parent="1">
          <mxGeometry x="-180" y="-250" width="160" height="150" as="geometry" />
        </mxCell>
        <mxCell id="4VQiV0ycE3jQWibe9DLj-13" value="" style="image;html=1;points=[];align=center;fontSize=12;image=img/lib/azure2/compute/Virtual_Machine.svg;aspect=fixed;" vertex="1" parent="1">
          <mxGeometry x="800.5" y="530" width="69" height="64" as="geometry" />
        </mxCell>
        <mxCell id="4VQiV0ycE3jQWibe9DLj-19" value="East US 2" style="text;html=1;align=center;verticalAlign=middle;resizable=0;points=[];autosize=1;strokeColor=none;fillColor=none;strokeWidth=4;fontSize=19;" vertex="1" parent="1">
          <mxGeometry x="-895" y="85" width="110" height="40" as="geometry" />
        </mxCell>
        <mxCell id="4VQiV0ycE3jQWibe9DLj-20" value="" style="rounded=1;whiteSpace=wrap;html=1;" vertex="1" parent="1">
          <mxGeometry x="-390" y="-100" width="180" height="150" as="geometry" />
        </mxCell>
        <mxCell id="4VQiV0ycE3jQWibe9DLj-22" value="Central India" style="text;html=1;align=center;verticalAlign=middle;resizable=0;points=[];autosize=1;strokeColor=none;fillColor=none;fontSize=21;" vertex="1" parent="1">
          <mxGeometry x="-15.5" y="390" width="140" height="40" as="geometry" />
        </mxCell>
        <mxCell id="4VQiV0ycE3jQWibe9DLj-7" value="" style="image;html=1;points=[];align=center;fontSize=12;image=img/lib/azure2/compute/Virtual_Machine.svg;aspect=fixed;" vertex="1" parent="1">
          <mxGeometry x="-149" y="-190" width="69" height="64" as="geometry" />
        </mxCell>
        <mxCell id="4VQiV0ycE3jQWibe9DLj-8" value="" style="image;html=1;points=[];align=center;fontSize=12;image=img/lib/azure2/compute/Virtual_Machine.svg;aspect=fixed;" vertex="1" parent="1">
          <mxGeometry x="-334.5" y="-60" width="69" height="64" as="geometry" />
        </mxCell>
        <mxCell id="4VQiV0ycE3jQWibe9DLj-23" value="West Europe" style="text;html=1;align=center;verticalAlign=middle;resizable=0;points=[];autosize=1;strokeColor=none;fillColor=none;fontSize=18;" vertex="1" parent="1">
          <mxGeometry x="-365" y="4" width="130" height="40" as="geometry" />
        </mxCell>
        <mxCell id="4VQiV0ycE3jQWibe9DLj-24" value="North&amp;nbsp;&lt;div&gt;Europe&lt;/div&gt;" style="text;html=1;align=center;verticalAlign=middle;resizable=0;points=[];autosize=1;strokeColor=none;fillColor=none;fontSize=18;" vertex="1" parent="1">
          <mxGeometry x="-110" y="-250" width="80" height="60" as="geometry" />
        </mxCell>
        <mxCell id="4VQiV0ycE3jQWibe9DLj-25" value="South East Asia (SEA)" style="text;html=1;align=center;verticalAlign=middle;resizable=0;points=[];autosize=1;strokeColor=none;fillColor=none;fontSize=19;" vertex="1" parent="1">
          <mxGeometry x="659.5" y="444" width="210" height="40" as="geometry" />
        </mxCell>
        <mxCell id="4VQiV0ycE3jQWibe9DLj-26" value="" style="rounded=1;whiteSpace=wrap;html=1;" vertex="1" parent="1">
          <mxGeometry x="540" y="-110" width="390" height="320" as="geometry" />
        </mxCell>
        <mxCell id="4VQiV0ycE3jQWibe9DLj-27" value="East Asia" style="text;html=1;align=center;verticalAlign=middle;resizable=0;points=[];autosize=1;strokeColor=none;fillColor=none;fontSize=20;" vertex="1" parent="1">
          <mxGeometry x="580" y="140" width="110" height="40" as="geometry" />
        </mxCell>
        <mxCell id="4VQiV0ycE3jQWibe9DLj-28" value="" style="image;html=1;points=[];align=center;fontSize=12;image=img/lib/azure2/compute/Virtual_Machine.svg;aspect=fixed;" vertex="1" parent="1">
          <mxGeometry x="840" y="128" width="69" height="64" as="geometry" />
        </mxCell>
        <mxCell id="4VQiV0ycE3jQWibe9DLj-30" value="" style="image;html=1;points=[];align=center;fontSize=12;image=img/lib/azure2/compute/Virtual_Machine.svg;aspect=fixed;" vertex="1" parent="1">
          <mxGeometry x="820" y="-80" width="69" height="64" as="geometry" />
        </mxCell>
        <mxCell id="4VQiV0ycE3jQWibe9DLj-31" value="" style="image;html=1;points=[];align=center;fontSize=12;image=img/lib/azure2/compute/Virtual_Machine.svg;aspect=fixed;" vertex="1" parent="1">
          <mxGeometry x="570" y="-80" width="69" height="64" as="geometry" />
        </mxCell>
        <mxCell id="4VQiV0ycE3jQWibe9DLj-32" value="Az104" style="text;html=1;align=center;verticalAlign=middle;resizable=0;points=[];autosize=1;strokeColor=none;fillColor=none;fontSize=16;" vertex="1" parent="1">
          <mxGeometry x="700" y="-140" width="70" height="30" as="geometry" />
        </mxCell>
      </root>
    </mxGraphModel>
  </diagram>
</mxfile>
